<svg height="512pt" viewBox="0 0 512 512" width="512pt" xmlns="http://www.w3.org/2000/svg"><path d="m512 256c0 128.1875-94.21875 234.382812-217.191406 253.074219-12.65625 1.921875-25.613282 2.925781-38.808594 2.925781-8.734375 0-17.367188-.4375-25.871094-1.304688-4.347656-.429687-8.652344-.972656-12.9375-1.632812-6.917968-1.042969-13.75-2.371094-20.480468-3.96875-19.433594-4.597656-38-11.421875-55.441407-20.175781-1.097656-.554688-2.183593-1.109375-3.269531-1.671875-2.875-1.507813-5.726562-3.054688-8.539062-4.660156-77.320313-44.042969-129.460938-127.230469-129.460938-222.585938 0-19.851562 2.257812-39.183594 6.542969-57.742188.300781-1.347656.625-2.695312.96875-4.03125 5.738281-23.175781 14.640625-45.109374 26.21875-65.308593 2.777343-4.867188 5.726562-9.632813 8.816406-14.292969 9.980469-15.023438 21.496094-28.945312 34.328125-41.511719 8.085938-7.933593 16.683594-15.320312 25.765625-22.113281 42.734375-32.035156 95.828125-51 153.359375-51 141.386719 0 256 114.613281 256 256zm0 0" fill="#3d3d3d"/><path d="m196.710938 425.816406v79.277344c-23.886719-5.652344-46.476563-14.671875-67.25-26.507812 20.480468-158.261719-93.964844-257.882813-122.917969-280.328126-4.148438-3.21875-6.542969-4.847656-6.542969-4.847656 2.257812 0 4.765625.273438 7.511719.816406 52.632812 10.300782 189.199219 117.214844 189.199219 231.589844zm0 0" fill="#6dbb59"/><path d="m230.128906 372.683594v138.011718c-11.378906-1.128906-22.527344-3.019531-33.417968-5.601562-19.433594-4.597656-38-11.421875-55.441407-20.175781 48.945313-179.390625-51.753906-303.511719-107.539062-356-19.65625-18.492188-33.730469-28.097657-33.730469-28.097657 10.292969 0 25.203125 4.890626 42.546875 13.804688 72.453125 37.210938 187.582031 144.488281 187.582031 258.058594zm0 0" fill="#319962"/><path d="m294.808594 509.074219c-12.65625 1.921875-25.613282 2.925781-38.808594 2.925781-8.734375 0-17.367188-.4375-25.871094-1.304688-4.347656-.429687-8.652344-.972656-12.9375-1.632812.617188-129.515625 8.707032-461.96875 38.808594-509.0625 30.101562 47.09375 38.191406 379.558594 38.808594 509.074219zm0 0" fill="#319962"/><path d="m256 302.433594v209.566406c-8.734375 0-17.367188-.4375-25.871094-1.304688-11.378906-1.128906-22.527344-3.019531-33.417968-5.601562-19.433594-4.597656-38-11.421875-55.441407-20.175781-1.097656-.554688-2.183593-1.109375-3.269531-1.671875 77.9375-189.683594 4.847656-330.828125-61.125-410.132813-39.730469-47.773437-76.875-73.113281-76.875-73.113281 21.472656 0 60.980469 19.132812 102.640625 51 73.351563 56.070312 153.359375 151.5625 153.359375 251.433594zm0 0" fill="#6dbb59"/><path d="m315.289062 425.816406v79.277344c23.886719-5.652344 46.476563-14.671875 67.25-26.507812-20.480468-158.261719 93.964844-257.882813 122.917969-280.328126 4.148438-3.21875 6.542969-4.847656 6.542969-4.847656-2.257812 0-4.765625.273438-7.511719.816406-52.632812 10.300782-189.199219 117.214844-189.199219 231.589844zm0 0" fill="#6dbb59"/><path d="m281.871094 372.683594v138.011718c11.378906-1.128906 22.527344-3.019531 33.417968-5.601562 19.433594-4.597656 38-11.421875 55.441407-20.175781-48.945313-179.390625 51.753906-303.511719 107.539062-356 19.65625-18.492188 33.730469-28.097657 33.730469-28.097657-10.292969 0-25.203125 4.890626-42.546875 13.804688-72.453125 37.210938-187.582031 144.488281-187.582031 258.058594zm0 0" fill="#319962"/><path d="m256 302.433594v209.566406c8.734375 0 17.367188-.4375 25.871094-1.304688 11.378906-1.128906 22.527344-3.019531 33.417968-5.601562 19.433594-4.597656 38-11.421875 55.441407-20.175781 1.097656-.554688 2.183593-1.109375 3.269531-1.671875-77.9375-189.683594-4.847656-330.828125 61.125-410.132813 39.730469-47.773437 76.875-73.113281 76.875-73.113281-21.472656 0-60.980469 19.132812-102.640625 51-73.351563 56.070312-153.359375 151.5625-153.359375 251.433594zm0 0" fill="#6dbb59"/><g fill="#fbcd58"><path d="m45.164062 269.898438c-.230468-.496094-.464843-.992188-.53125-1.382813-.855468-4.808594 6.640626-9.734375 12.777344-10.71875 3.5625-.582031 6.578125.019531 7.855469 2.621094 10.121094 21.269531 19.882813 42.644531 29.285156 64.125 3.105469-23.230469 6.582031-46.457031 10.421875-69.675781.515625-2.859376 3.25-4.257813 6.828125-4.679688 6.160157-.730469 14.699219 1.945312 15.199219 6.808594.042969.394531-.046875.9375-.128906 1.476562-5.988282 27.625-11.386719 55.28125-16.203125 82.957032-.875 4.769531-6.507813 7.757812-12.554688 8.605468-6.046875.84375-12.289062-.488281-14.441406-4.832031-12.269531-25.285156-25.105469-50.394531-38.507813-75.304687zm0 0"/><path d="m164.175781 285.550781c6.941407-.53125 13.886719-1.007812 20.832031-1.421875 4.175782-.246094 6.742188 3.457032 6.964844 7.671875.1875 3.5625-1.507812 7.878907-6.027344 8.144531-6.855468.40625-13.707031.875-20.558593 1.402344.574219 7.457032 1.148437 14.914063 1.722656 22.375 12.003906-.925781 24.019531-1.660156 36.042969-2.207031 4.042968-.183594 6.5 3.949219 6.691406 8.828125.167969 4.222656-1.503906 8.910156-5.871094 9.105469-15.722656.71875-31.4375 1.761719-47.125 3.128906-4.492187.390625-9.183594-1.285156-9.589844-5.488281-2.648437-27.816406-5.292968-55.632813-7.941406-83.449219-.40625-4.207031 4.269532-6.773437 9.148438-7.199219 17.015625-1.484375 34.058594-2.613281 51.109375-3.390625 4.746093-.214843 6.941406 4.328125 7.109375 8.546875.191406 4.882813-2.050782 9.195313-6.292969 9.386719-12.648437.578125-25.292969 1.351563-37.925781 2.324219.570312 7.414062 1.140625 14.828125 1.710937 22.242187zm0 0"/><path d="m254.652344 259.714844c-8.085938.011718-12.71875 4.308594-12.601563 13.28125.132813 11.660156.269531 23.320312.402344 34.980468.117187 8.980469 4.605469 13.136719 12.132813 13.125 7.527343-.007812 12.140624-4.175781 12.234374-13.152343.015626-1.496094.027344-2.992188.042969-4.488281-2.6875-.027344-5.375-.042969-8.0625-.046876-4.09375-.011718-6.429687-3.824218-6.445312-7.917968-.015625-3.828125 2.324219-7.933594 6.484375-7.921875 7.753906.015625 15.507812.109375 23.261718.28125 4.160157.09375 6.429688 3.195312 6.332032 6.625-.128906 4.621093-.253906 9.238281-.378906 13.855469-.707032 22.703124-15.214844 30.6875-33.445313 30.71875-18.230469.015624-32.628906-7.9375-33.386719-30.640626-.347656-11.65625-.691406-23.308593-1.039062-34.964843-.757813-22.691407 14.691406-31.664063 33.585937-31.6875 20.628907-.035157 35.90625 9.980469 35.375 26.722656-.226562 7.921875-3.761719 9.65625-11.15625 9.515625-5.859375-.109375-10.730469-1.597656-10.832031-6.351562-.097656-4.742188-.445312-11.921876-12.503906-11.933594zm0 0"/><path d="m296.796875 330.539062c.015625-.394531.167969-.925781.320313-1.441406 9.246093-26.53125 19.070312-52.949218 29.472656-79.238281 1.828125-4.527344 8.433594-6.386719 15.046875-5.925781 6.613281.457031 12.902343 3.210937 14.089843 7.945312 6.726563 27.476563 12.863282 55.003906 18.414063 82.558594.078125.539062.15625 1.078125.117187 1.472656-.515624 4.851563-8.40625 7.625-14.082031 7.117188-3.304687-.304688-5.855469-1.582032-6.417969-4.414063-1.03125-5.609375-2.089843-11.214843-3.167968-16.824219-9.46875-.773437-18.941406-1.429687-28.421875-1.972656-1.84375 5.40625-3.660157 10.816406-5.460938 16.226563-.945312 2.726562-3.644531 3.640625-6.957031 3.484375-5.6875-.273438-13.113281-4.113282-12.953125-8.988282zm50.582031-24.898437c-2.40625-12.015625-4.914062-24.023437-7.523437-36.027344-4.238281 11.527344-8.375 23.078125-12.414063 34.648438 6.648438.402343 13.292969.863281 19.9375 1.378906zm0 0"/><path d="m431.417969 346.210938c-6.035157-16.339844-12.414063-32.640626-19.136719-48.886719-1.960938 14.832031-3.921875 29.667969-5.882812 44.5-.558594 4.183593-5.972657 5.59375-11.109376 4.96875-5.136718-.636719-10.042968-3.316407-9.574218-7.511719 3.160156-27.765625 6.316406-55.527344 9.476562-83.292969.488282-4.328125 6.292969-5.664062 11.875-4.972656 8 .988281 10.949219 2.054687 15.042969 12.332031 5.804687 14.515625 11.351563 29.070313 16.636719 43.65625 2.304687-14.78125 4.605468-29.566406 6.910156-44.347656.664062-4.304688 6.511719-5.269531 12.066406-4.347656 5.558594.914062 10.789063 3.707031 10.03125 7.996094-4.8125 27.570312-9.621094 55.140624-14.433594 82.710937-.734374 4.160156-6.207031 5.34375-11.324218 4.503906-4.726563-.78125-8.773438-2.351562-10.578125-7.308593zm0 0"/></g><path d="m169.777344 402.4375-2.636719 1.636719c-.820313.546875-1.640625.730469-2.277344.730469-2.640625 0-4.457031-2.824219-4.457031-5.644532 0-1.910156.816406-3.730468 2.636719-4.824218l12.011719-7.28125c.726562-.453126 1.636718-.636719 2.640624-.636719 2.910157 0 6.277344 1.730469 6.277344 4.460937v57.878906c0 2.914063-3.546875 4.371094-7.097656 4.371094-3.546875 0-7.097656-1.457031-7.097656-4.371094zm0 0" fill="#dd3d88"/><path d="m194.894531 432.195312v-24.117187c0-15.652344 9.738281-21.476563 22.300781-21.476563 12.558594 0 22.386719 5.824219 22.386719 21.476563v24.117187c0 15.652344-9.828125 21.476563-22.386719 21.476563-12.5625 0-22.300781-5.824219-22.300781-21.476563zm30.488281-24.117187c0-6.277344-3.09375-9.097656-8.1875-9.097656-5.097656 0-8.101562 2.820312-8.101562 9.097656v24.117187c0 6.28125 3.003906 9.101563 8.101562 9.101563 5.09375 0 8.1875-2.820313 8.1875-9.101563zm0 0" fill="#dd3d88"/><path d="m249.410156 432.195312v-24.117187c0-15.652344 9.734375-21.476563 22.296875-21.476563 12.558594 0 22.386719 5.824219 22.386719 21.476563v24.117187c0 15.652344-9.828125 21.476563-22.386719 21.476563-12.5625 0-22.296875-5.824219-22.296875-21.476563zm30.488282-24.117187c0-6.277344-3.09375-9.097656-8.191407-9.097656-5.097656 0-8.101562 2.820312-8.101562 9.097656v24.117187c0 6.28125 3.003906 9.101563 8.101562 9.101563 5.097657 0 8.191407-2.820313 8.191407-9.101563zm0 0" fill="#dd3d88"/><path d="m302.558594 411.808594v-12.921875c0-9.011719 5.914062-12.285157 13.652344-12.285157 7.640624 0 13.648437 3.273438 13.648437 12.285157v12.921875c0 9.011718-6.007813 12.289062-13.648437 12.289062-7.738282 0-13.652344-3.277344-13.652344-12.289062zm18.199218-12.921875c0-3.003907-1.726562-4.367188-4.546874-4.367188-2.820313 0-4.460938 1.363281-4.460938 4.367188v12.925781c0 3 1.636719 4.367188 4.460938 4.367188 2.820312 0 4.546874-1.367188 4.546874-4.367188zm37.316407-11.195313c0 .546875-.09375 1.183594-.367188 1.730469l-32.035156 65.617187c-.632813 1.363282-2.363281 2.273438-4.09375 2.273438-3.09375 0-5.097656-2.546875-5.097656-4.824219 0-.542969.183593-1.179687.457031-1.726562l31.945312-65.617188c.726563-1.546875 2.183594-2.273437 3.820313-2.273437 2.546875 0 5.371094 1.910156 5.371094 4.820312zm-13.742188 53.421875v-12.921875c0-9.007812 5.914063-12.285156 13.648438-12.285156 7.644531 0 13.652343 3.277344 13.652343 12.285156v12.921875c0 9.011719-6.007812 12.289063-13.652343 12.289063-7.734375-.003906-13.648438-3.277344-13.648438-12.289063zm18.199219-12.921875c0-3.003906-1.730469-4.371094-4.550781-4.371094-2.820313 0-4.457031 1.367188-4.457031 4.371094v12.921875c0 3.003907 1.636718 4.371094 4.457031 4.371094 2.820312 0 4.550781-1.367187 4.550781-4.371094zm0 0" fill="#dd3d88"/></svg>